<svg width="30" height="30" viewBox="0 0 30 30" fill="none" xmlns="http://www.w3.org/2000/svg">
<path d="M29.9997 15C29.9817 12.1376 29.145 9.34006 27.5884 6.93778C26.0318 4.5355 23.8204 2.62876 21.2152 1.4427C18.61 0.256638 15.7198 -0.159222 12.8859 0.244222C10.052 0.647666 7.39265 1.85357 5.22194 3.71954C3.05122 5.58552 1.45975 8.03365 0.635428 10.7749C-0.188896 13.5161 -0.21165 16.436 0.569854 19.1897C1.35136 21.9435 2.90448 24.4161 5.04585 26.3157C7.18722 28.2153 9.82742 29.4625 12.6547 29.91V19.36H8.8497V15H12.6597V11.675C12.6597 7.89001 14.8997 5.80501 18.3247 5.80501C19.4489 5.81819 20.5705 5.91681 21.6797 6.10001V9.81001H19.7897C17.9247 9.81001 17.3447 10.975 17.3447 12.17V15H21.4997L20.8347 19.36H17.3347V29.91C20.874 29.3368 24.093 27.521 26.4142 24.7884C28.7353 22.0558 30.0066 18.5854 29.9997 15Z" fill="#C4A063"/>
</svg>
