<svg width="30" height="30" viewBox="0 0 30 30" fill="none" xmlns="http://www.w3.org/2000/svg">
<path d="M24.7594 6.41997C24.5537 6.31712 24.3565 6.19712 24.168 6.07712C23.6108 5.70854 23.1051 5.27997 22.6508 4.7914C21.768 3.79712 21.168 2.57997 20.9451 1.26854C20.8594 0.857116 20.8422 0.428545 20.8765 0.00854492H15.7251V19.9285C15.7251 20.1943 15.7251 20.46 15.7165 20.7171C15.7165 20.7514 15.7165 20.7771 15.7165 20.8114C15.7165 20.8285 15.7165 20.8371 15.7165 20.8543C15.6051 22.32 14.7822 23.6228 13.5137 24.3428C12.8622 24.7114 12.1251 24.9085 11.3794 24.9085C8.96224 24.9085 7.00796 22.9457 7.00796 20.5371C7.00796 18.1285 8.97082 16.1657 11.3794 16.1657C11.8337 16.1657 12.288 16.2343 12.7165 16.38V11.1343C10.068 10.7914 7.40225 11.5714 5.35367 13.2943C4.46225 14.0657 3.71653 14.9828 3.15082 16.0114C2.42225 17.3314 2.02796 18.8143 2.00225 20.3314C1.99367 21.4971 2.17367 22.6543 2.55939 23.7514C2.90225 24.6771 3.37367 25.5343 3.95653 26.3143C4.59082 27.12 5.3451 27.8314 6.1851 28.4228H6.19367C7.75367 29.4514 9.58796 30 11.4565 30.0085C12.8022 30.0085 14.1394 29.7085 15.3565 29.1428C16.5651 28.5771 17.6451 27.7628 18.528 26.76C19.2651 25.9114 19.848 24.9343 20.2508 23.8885C20.628 22.8343 20.8337 21.7285 20.868 20.6057V10.0285C20.928 10.0628 21.7594 10.62 21.7594 10.62C22.7194 11.1857 23.748 11.6143 24.828 11.8885C25.8651 12.1285 26.9194 12.2657 27.9822 12.3171V7.19997C26.8508 7.21712 25.7365 6.94283 24.7422 6.41997H24.7594Z" fill="#AF905C"/>
</svg>
