<svg width="20" height="20" viewBox="0 0 20 20" fill="none" xmlns="http://www.w3.org/2000/svg">
<path d="M0.294922 9.65137C0.294922 9.57715 0.310384 9.50911 0.341309 9.44727C0.372233 9.38542 0.412435 9.32975 0.461914 9.28027L9.42383 0.336914C9.47331 0.287436 9.52897 0.247232 9.59082 0.216309C9.65267 0.185385 9.7207 0.169922 9.79492 0.169922C9.86914 0.169922 9.93717 0.185385 9.99902 0.216309C10.0609 0.247232 10.1165 0.287436 10.166 0.336914C10.2155 0.374023 10.2526 0.426596 10.2773 0.494629C10.3021 0.562662 10.3145 0.627604 10.3145 0.689453C10.3145 0.763672 10.3021 0.834799 10.2773 0.902832C10.2526 0.970865 10.2155 1.02344 10.166 1.06055L2.07617 9.15039H18.7754C18.9115 9.15039 19.0321 9.19987 19.1372 9.29883C19.2423 9.39779 19.2949 9.52148 19.2949 9.66992C19.2949 9.81836 19.2423 9.94206 19.1372 10.041C19.0321 10.14 18.9115 10.1895 18.7754 10.1895H2.07617L10.1475 18.2793C10.1969 18.3288 10.2371 18.3844 10.2681 18.4463C10.299 18.5081 10.3145 18.5762 10.3145 18.6504C10.3145 18.7246 10.299 18.7926 10.2681 18.8545C10.2371 18.9163 10.1969 18.972 10.1475 19.0215C10.1104 19.0586 10.0578 19.0926 9.98975 19.1235C9.92171 19.1545 9.85677 19.1699 9.79492 19.1699C9.7207 19.1699 9.65267 19.1545 9.59082 19.1235C9.52897 19.0926 9.47331 19.0586 9.42383 19.0215L0.443359 10.041C0.41862 10.0163 0.396973 9.99154 0.378418 9.9668C0.359863 9.94206 0.344401 9.91113 0.332031 9.87402V9.85547C0.319661 9.83073 0.310384 9.80599 0.304199 9.78125C0.298014 9.75651 0.294922 9.72559 0.294922 9.68848V9.63281V9.65137Z" fill="#F4F1E6"/>
</svg>
