<svg width="20" height="20" viewBox="0 0 20 20" fill="none" xmlns="http://www.w3.org/2000/svg">
<path d="M19.6846 9.68848C19.6846 9.7627 19.6691 9.83073 19.6382 9.89258C19.6073 9.95443 19.5671 10.0101 19.5176 10.0596L10.5557 19.0029C10.5062 19.0524 10.4505 19.0926 10.3887 19.1235C10.3268 19.1545 10.2588 19.1699 10.1846 19.1699C10.1104 19.1699 10.0423 19.1545 9.98047 19.1235C9.91862 19.0926 9.86296 19.0524 9.81348 19.0029C9.764 18.9658 9.72689 18.9132 9.70215 18.8452C9.67741 18.7772 9.66504 18.7122 9.66504 18.6504C9.66504 18.5762 9.67741 18.505 9.70215 18.437C9.72689 18.369 9.764 18.3164 9.81348 18.2793L17.9033 10.1895H1.2041C1.06803 10.1895 0.947428 10.14 0.842285 10.041C0.737142 9.94206 0.68457 9.81836 0.68457 9.66992C0.68457 9.52148 0.737142 9.39779 0.842285 9.29883C0.947428 9.19987 1.06803 9.15039 1.2041 9.15039H17.9033L9.83203 1.06055C9.78255 1.01107 9.74235 0.955404 9.71143 0.893555C9.6805 0.831705 9.66504 0.763672 9.66504 0.689453C9.66504 0.615234 9.6805 0.547201 9.71143 0.485352C9.74235 0.423502 9.78255 0.367838 9.83203 0.318359C9.86914 0.28125 9.92171 0.247232 9.98975 0.216309C10.0578 0.185385 10.1227 0.169922 10.1846 0.169922C10.2588 0.169922 10.3299 0.185385 10.3979 0.216309C10.466 0.247232 10.5186 0.28125 10.5557 0.318359L19.5361 9.29883C19.5609 9.32357 19.5825 9.34831 19.6011 9.37305C19.6196 9.39779 19.6351 9.42871 19.6475 9.46582V9.48438C19.6598 9.50911 19.6691 9.53385 19.6753 9.55859C19.6815 9.58333 19.6846 9.61426 19.6846 9.65137V9.70703V9.68848Z" fill="#F4F1E6"/>
</svg>
