<svg width="30" height="30" viewBox="0 0 30 30" fill="none" xmlns="http://www.w3.org/2000/svg">
<path d="M30 15.0003C29.982 12.1378 29.1453 9.34031 27.5887 6.93803C26.0321 4.53574 23.8207 2.62901 21.2155 1.44294C18.6103 0.256882 15.7201 -0.158977 12.8862 0.244466C10.0523 0.64791 7.39296 1.85381 5.22224 3.71979C3.05153 5.58576 1.46006 8.03389 0.635733 10.7751C-0.188591 13.5164 -0.211345 16.4362 0.570159 19.19C1.35166 21.9437 2.90479 24.4163 5.04616 26.3159C7.18753 28.2155 9.82772 29.4627 12.655 29.9103V19.3603H8.85001V15.0003H12.66V11.6753C12.66 7.89025 14.9 5.80525 18.325 5.80525C19.4492 5.81843 20.5708 5.91705 21.68 6.10025V9.81025H19.79C17.925 9.81025 17.345 10.9753 17.345 12.1703V15.0003H21.5L20.835 19.3603H17.335V29.9103C20.8743 29.3371 24.0934 27.5212 26.4145 24.7886C28.7357 22.056 30.0069 18.5856 30 15.0003Z" fill="white"/>
</svg>
