<svg width="31" height="20" viewBox="0 0 31 20" fill="none" xmlns="http://www.w3.org/2000/svg">
<g clip-path="url(#clip0_123_2199)">
<path d="M6.15972 18.8051C9.2017 18.8051 11.6677 16.4821 11.6677 13.6166C11.6677 10.7511 9.2017 8.4281 6.15972 8.4281C3.11774 8.4281 0.651733 10.7511 0.651733 13.6166C0.651733 16.4821 3.11774 18.8051 6.15972 18.8051Z" fill="white"/>
<path d="M6.19169 20C2.77316 20 0 17.2268 0 13.8083C0 10.3898 2.77316 7.61661 6.19169 7.61661C9.61022 7.61661 12.3834 10.3898 12.3834 13.8083C12.3834 17.2268 9.61022 19.9936 6.19169 20ZM6.19169 9.52715C3.82748 9.52715 1.90415 11.4441 1.90415 13.8147C1.90415 16.1853 3.82109 18.1022 6.19169 18.1022C8.5623 18.1022 10.4792 16.1853 10.4792 13.8147C10.4792 11.4505 8.55591 9.53354 6.19169 9.52715Z" fill="white"/>
<path d="M22.3707 18.8051C25.4126 18.8051 27.8786 16.4821 27.8786 13.6166C27.8786 10.7511 25.4126 8.4281 22.3707 8.4281C19.3287 8.4281 16.8627 10.7511 16.8627 13.6166C16.8627 16.4821 19.3287 18.8051 22.3707 18.8051Z" fill="white"/>
<path d="M22.377 20C18.9585 20 16.1853 17.2268 16.1853 13.8083C16.1853 10.3898 18.9585 7.61661 22.377 7.61661C25.7955 7.61661 28.5687 10.3898 28.5687 13.8083C28.5687 17.2268 25.7955 19.9936 22.377 20ZM22.377 9.52715C20.0128 9.52715 18.0895 11.4441 18.0895 13.8147C18.0895 16.1853 20.0064 18.1022 22.377 18.1022C24.7476 18.1022 26.6645 16.1853 26.6645 13.8147C26.6645 11.4505 24.7412 9.53354 22.377 9.52715Z" fill="white"/>
<path d="M0.952077 14.2875C0.428115 14.2875 0.00638978 13.8594 0 13.3355C0.00638978 5.97444 5.97444 0.00638978 13.3355 0C13.8594 0 14.2875 0.428115 14.2875 0.952077C14.2875 1.47604 13.8594 1.90415 13.3355 1.90415C7.02875 1.90415 1.91054 7.02236 1.91054 13.3291C1.91054 13.853 1.48243 14.2812 0.958466 14.2812L0.952077 14.2875Z" fill="white"/>
<path d="M17.1437 14.2875C16.6198 14.2875 16.198 13.8594 16.1917 13.3355C16.198 5.97444 22.1597 0.00638978 29.5207 0C30.0447 0 30.4728 0.428115 30.4728 0.952077C30.4728 1.47604 30.0447 1.90415 29.5207 1.90415C23.214 1.90415 18.0958 7.02236 18.0894 13.3291C18.0894 13.853 17.6613 14.2812 17.1373 14.2812L17.1437 14.2875Z" fill="white"/>
</g>
<defs>
<clipPath id="clip0_123_2199">
<rect width="30.4728" height="20" fill="white"/>
</clipPath>
</defs>
</svg>
