<svg width="30" height="30" viewBox="0 0 30 30" fill="none" xmlns="http://www.w3.org/2000/svg">
<path d="M14.9975 0C10.9232 0 10.4133 0 8.81353 0.089985C7.56962 0.116501 6.33915 0.35313 5.17414 0.789868C4.16755 1.15577 3.25425 1.73959 2.49958 2.49958C1.73598 3.24742 1.14555 4.15353 0.769872 5.15414C0.331263 6.31863 0.0945715 7.54942 0.0699883 8.79353C0 10.4133 0 10.9232 0 14.9975C0 19.0718 0 19.5817 0.089985 21.1815C0.114079 22.4256 0.350786 23.6565 0.789868 24.8209C1.17138 25.8188 1.75904 26.7251 2.51449 27.4805C3.26994 28.236 4.17621 28.8236 5.17414 29.2051C6.33891 29.6434 7.56936 29.8817 8.81353 29.91C10.4133 29.995 10.9232 29.995 14.9975 29.995C19.0718 29.995 19.5817 29.995 21.1815 29.905C22.4256 29.8767 23.6561 29.6384 24.8209 29.2001C25.8178 28.8159 26.7234 28.2274 27.4793 27.4723C28.2352 26.7173 28.8248 25.8124 29.2101 24.8159C29.6445 23.6502 29.881 22.4201 29.91 21.1765C29.995 19.5817 29.995 19.0718 29.995 14.9975C29.995 10.9232 29.995 10.4133 29.905 8.81353C29.876 7.56989 29.6395 6.33982 29.2051 5.17414C28.8207 4.17653 28.2314 3.27054 27.4754 2.51456C26.7195 1.75857 25.8135 1.16935 24.8159 0.784869C23.6522 0.350298 22.4234 0.115367 21.1815 0.089985C19.5817 0 19.0718 0 14.9975 0ZM14.9975 2.69955C18.9968 2.69955 19.4967 2.69955 21.0565 2.78954C22.0067 2.79223 22.9492 2.96143 23.841 3.28945C24.4893 3.53661 25.0781 3.9177 25.5691 4.40784C26.0601 4.89798 26.4423 5.48616 26.6906 6.13398C27.0158 7.02657 27.1849 7.96852 27.1905 8.91851C27.2755 10.4983 27.2955 10.9982 27.2955 14.9975C27.2955 18.9968 27.2955 19.4967 27.2005 21.0615C27.1923 22.0096 27.0233 22.9495 26.7006 23.841C26.4568 24.493 26.0728 25.0835 25.5757 25.5707C25.0906 26.0668 24.5016 26.4492 23.851 26.6906C22.955 27.0159 22.0097 27.185 21.0565 27.1905C19.4668 27.2605 18.9968 27.2805 14.9875 27.2805C10.9782 27.2805 10.4883 27.2805 8.91351 27.1855C7.9605 27.1774 7.0157 27.0083 6.11898 26.6856C5.46723 26.4442 4.87787 26.0599 4.39427 25.5607C3.89299 25.0789 3.50828 24.489 3.26945 23.836C2.94666 22.9393 2.77765 21.9945 2.76954 21.0415C2.66456 19.4568 2.64456 18.9968 2.64456 14.9975C2.64456 10.9982 2.64456 10.4983 2.71955 8.92351C2.72766 7.9705 2.89667 7.0257 3.21946 6.12898C3.45897 5.46447 3.85309 4.86644 4.36927 4.38427C4.84873 3.8813 5.43944 3.49776 6.09398 3.26446C6.98194 2.93122 7.92026 2.75201 8.86852 2.73454C10.4633 2.67955 10.9282 2.65956 14.9425 2.65956L14.9975 2.69955ZM14.9975 7.29878C13.4734 7.29779 11.9833 7.7489 10.7157 8.59501C9.44803 9.44113 8.45985 10.6442 7.87615 12.0521C7.29246 13.46 7.13948 15.0094 7.43657 16.5042C7.73366 17.999 8.46747 19.3722 9.54515 20.4498C10.6228 21.5275 11.996 22.2613 13.4908 22.5584C14.9856 22.8555 16.535 22.7025 17.9429 22.1188C19.3508 21.5352 20.5539 20.547 21.4 19.2793C22.2461 18.0117 22.6972 16.5216 22.6962 14.9975C22.6969 13.9863 22.4982 12.9849 22.1115 12.0506C21.7249 11.1162 21.1578 10.2672 20.4428 9.55222C19.7278 8.8372 18.8788 8.27014 17.9444 7.88347C17.0101 7.49681 16.0087 7.29813 14.9975 7.29878ZM14.9975 19.9967C14.0088 19.9967 13.0422 19.7035 12.2201 19.1542C11.398 18.6048 10.7572 17.8241 10.3789 16.9106C10.0005 15.9971 9.9015 14.992 10.0944 14.0222C10.2873 13.0525 10.7634 12.1617 11.4626 11.4626C12.1617 10.7634 13.0525 10.2873 14.0222 10.0944C14.992 9.9015 15.9971 10.0005 16.9106 10.3789C17.8241 10.7572 18.6048 11.398 19.1542 12.2201C19.7035 13.0422 19.9967 14.0088 19.9967 14.9975C19.9967 16.3234 19.47 17.5949 18.5324 18.5324C17.5949 19.47 16.3234 19.9967 14.9975 19.9967ZM24.8059 6.99883C24.8059 7.35478 24.7003 7.70273 24.5026 7.99869C24.3048 8.29465 24.0237 8.52532 23.6949 8.66154C23.366 8.79775 23.0042 8.83339 22.6551 8.76395C22.306 8.69451 21.9853 8.52311 21.7336 8.27141C21.4819 8.01972 21.3105 7.69904 21.241 7.34994C21.1716 7.00083 21.2072 6.63897 21.3435 6.31012C21.4797 5.98127 21.7103 5.70019 22.0063 5.50244C22.3023 5.30468 22.6502 5.19913 23.0062 5.19913C23.4835 5.19913 23.9412 5.38874 24.2787 5.72625C24.6163 6.06376 24.8059 6.52152 24.8059 6.99883Z" fill="white"/>
</svg>
