<svg width="428" height="47" viewBox="0 0 428 47" fill="none" xmlns="http://www.w3.org/2000/svg">
<path d="M1 46.2195V1.69775H31.9898C37.7047 1.69775 41.9717 2.721 44.7978 4.76054C47.6169 6.78615 49.03 9.45912 49.03 12.7795C49.03 15.0626 48.1112 17.1648 46.2735 19.0721C44.4497 20.9863 42.0413 22.2323 39.0342 22.8031V23.1372C41.742 23.4713 44.1017 24.1674 46.1064 25.2255C48.1251 26.2835 49.6982 27.6061 50.812 29.1793C51.9396 30.7385 52.5104 32.4369 52.5104 34.2746C52.5104 37.8247 50.9303 40.6995 47.777 42.9061C44.6168 45.1196 39.7581 46.2195 33.187 46.2195H1ZM4.36906 22.1905H31.1545C33.5281 22.1905 35.8391 21.8286 38.0875 21.1047C40.3289 20.3807 42.1875 19.3436 43.6562 17.9862C45.118 16.6358 45.8558 15.0487 45.8558 13.2249C45.8558 10.4963 44.6655 8.35234 42.2919 6.79311C39.9113 5.21995 36.5143 4.42641 32.1012 4.42641H4.36906V22.1905ZM4.36906 43.4908H33.3263C38.4077 43.4908 42.3267 42.6137 45.0762 40.8457C47.8397 39.0846 49.2249 36.7805 49.2249 33.9405C49.2249 31.9914 48.501 30.3348 47.0531 28.9565C45.6052 27.5852 43.6284 26.5272 41.1224 25.7824C38.6305 25.0445 35.7765 24.6686 32.5467 24.6686H4.36906V43.4908Z" fill="#AA9163" stroke="#AA9163" stroke-width="1.5"/>
<path d="M69.9592 46.2178L100.142 1H100.865L131.131 46.2178H127.317L121.33 37.0573H79.3703L73.384 46.2178H69.9592ZM81.0688 34.5792H119.688L100.671 5.70555H100.225L81.0688 34.5792Z" fill="#AA9163" stroke="#AA9163" stroke-width="1.5"/>
<path d="M150.574 46.2195V1.69775H178.891C182.991 1.69775 186.52 2.21982 189.472 3.25699C192.423 4.30112 194.692 5.75594 196.293 7.62841C197.908 9.48696 198.716 11.6866 198.716 14.2273C198.716 16.4409 198.061 18.4804 196.767 20.3529C195.486 22.2114 193.655 23.7219 191.281 24.8914C188.901 26.0608 186.047 26.7499 182.706 26.9518L199.245 46.2195H195.347L179.086 27.1467L153.832 27.2024V46.2195H150.574ZM153.832 24.7243H178.64C181.94 24.7243 184.836 24.2788 187.328 23.3878C189.834 22.4968 191.79 21.2856 193.203 19.7403C194.63 18.1811 195.347 16.4269 195.347 14.4779C195.347 11.436 193.857 9.01363 190.892 7.21076C187.94 5.41486 183.938 4.50994 178.891 4.50994H153.832V24.7243Z" fill="#AA9163" stroke="#AA9163" stroke-width="1.5"/>
<path d="M215.909 46.2178L246.091 1H246.815L277.081 46.2178H273.266L267.28 37.0573H225.32L219.334 46.2178H215.909ZM227.018 34.5792H265.637L246.62 5.70555H246.175L227.018 34.5792Z" fill="#AA9163" stroke="#AA9163" stroke-width="1.5"/>
<path d="M290.759 46.2178L320.941 1H321.665L351.931 46.2178H348.116L342.13 37.0573H300.17L294.184 46.2178H290.759ZM301.868 34.5792H340.487L321.47 5.70555H321.025L301.868 34.5792Z" fill="#AA9163" stroke="#AA9163" stroke-width="1.5"/>
<path d="M371.373 46.2195V1.69775H374.686V28.5945H375.132L416.98 1.69775H421.24L393.453 20.158L424.999 46.2195H420.656L390.919 21.94H390.529L374.686 31.9079V46.2195H371.373Z" fill="#AA9163" stroke="#AA9163" stroke-width="1.5"/>
</svg>
