<svg width="31" height="20" viewBox="0 0 31 20" fill="none" xmlns="http://www.w3.org/2000/svg">
<g clip-path="url(#clip0_1_149)">
<path d="M6.15972 18.8052C9.2017 18.8052 11.6677 16.4823 11.6677 13.6167C11.6677 10.7512 9.2017 8.42822 6.15972 8.42822C3.11774 8.42822 0.651733 10.7512 0.651733 13.6167C0.651733 16.4823 3.11774 18.8052 6.15972 18.8052Z" fill="#AA9163"/>
<path d="M6.19169 20.0001C2.77316 20.0001 0 17.2269 0 13.8084C0 10.3899 2.77316 7.6167 6.19169 7.6167C9.61022 7.6167 12.3834 10.3899 12.3834 13.8084C12.3834 17.2269 9.61022 19.9937 6.19169 20.0001ZM6.19169 9.52724C3.82748 9.52724 1.90415 11.4442 1.90415 13.8148C1.90415 16.1854 3.82109 18.1023 6.19169 18.1023C8.5623 18.1023 10.4792 16.1854 10.4792 13.8148C10.4792 11.4506 8.55591 9.53363 6.19169 9.52724Z" fill="#AA9163"/>
<path d="M22.3706 18.8052C25.4126 18.8052 27.8786 16.4823 27.8786 13.6167C27.8786 10.7512 25.4126 8.42822 22.3706 8.42822C19.3286 8.42822 16.8626 10.7512 16.8626 13.6167C16.8626 16.4823 19.3286 18.8052 22.3706 18.8052Z" fill="#AA9163"/>
<path d="M22.377 20.0001C18.9585 20.0001 16.1853 17.2269 16.1853 13.8084C16.1853 10.3899 18.9585 7.6167 22.377 7.6167C25.7955 7.6167 28.5687 10.3899 28.5687 13.8084C28.5687 17.2269 25.7955 19.9937 22.377 20.0001ZM22.377 9.52724C20.0128 9.52724 18.0895 11.4442 18.0895 13.8148C18.0895 16.1854 20.0064 18.1023 22.377 18.1023C24.7476 18.1023 26.6645 16.1854 26.6645 13.8148C26.6645 11.4506 24.7412 9.53363 22.377 9.52724Z" fill="#AA9163"/>
<path d="M0.952077 14.2875C0.428115 14.2875 0.00638978 13.8594 0 13.3355C0.00638978 5.97444 5.97444 0.00638978 13.3355 0C13.8594 0 14.2875 0.428115 14.2875 0.952077C14.2875 1.47604 13.8594 1.90415 13.3355 1.90415C7.02875 1.90415 1.91054 7.02236 1.91054 13.3291C1.91054 13.853 1.48243 14.2812 0.958466 14.2812L0.952077 14.2875Z" fill="#AA9163"/>
<path d="M17.1438 14.2875C16.6198 14.2875 16.1981 13.8594 16.1917 13.3355C16.1981 5.97444 22.1598 0.00638978 29.5208 0C30.0447 0 30.4729 0.428115 30.4729 0.952077C30.4729 1.47604 30.0447 1.90415 29.5208 1.90415C23.2141 1.90415 18.0959 7.02236 18.0895 13.3291C18.0895 13.853 17.6614 14.2812 17.1374 14.2812L17.1438 14.2875Z" fill="#AA9163"/>
</g>
<defs>
<clipPath id="clip0_1_149">
<rect width="30.4728" height="20" fill="white"/>
</clipPath>
</defs>
</svg>
