<svg width="30" height="30" viewBox="0 0 30 30" fill="none" xmlns="http://www.w3.org/2000/svg">
<path d="M24.7586 6.42022C24.5529 6.31736 24.3557 6.19736 24.1671 6.07736C23.61 5.70879 23.1043 5.28022 22.65 4.79165C21.7671 3.79736 21.1671 2.58022 20.9443 1.26879C20.8586 0.857361 20.8414 0.428789 20.8757 0.00878906H15.7243V19.9288C15.7243 20.1945 15.7243 20.4602 15.7157 20.7174C15.7157 20.7516 15.7157 20.7774 15.7157 20.8116C15.7157 20.8288 15.7157 20.8374 15.7157 20.8545C15.6043 22.3202 14.7814 23.6231 13.5128 24.3431C12.8614 24.7116 12.1243 24.9088 11.3786 24.9088C8.96142 24.9088 7.00714 22.9459 7.00714 20.5374C7.00714 18.1288 8.96999 16.1659 11.3786 16.1659C11.8328 16.1659 12.2871 16.2345 12.7157 16.3802V11.1345C10.0671 10.7916 7.40142 11.5716 5.35285 13.2945C4.46142 14.0659 3.71571 14.9831 3.14999 16.0116C2.42142 17.3316 2.02714 18.8145 2.00142 20.3316C1.99285 21.4974 2.17285 22.6545 2.55856 23.7516C2.90142 24.6774 3.37285 25.5345 3.95571 26.3145C4.58999 27.1202 5.34428 27.8316 6.18428 28.4231H6.19285C7.75285 29.4516 9.58713 30.0002 11.4557 30.0088C12.8014 30.0088 14.1386 29.7088 15.3557 29.1431C16.5643 28.5774 17.6443 27.7631 18.5271 26.7602C19.2643 25.9116 19.8471 24.9345 20.25 23.8888C20.6271 22.8345 20.8329 21.7288 20.8671 20.6059V10.0288C20.9271 10.0631 21.7586 10.6202 21.7586 10.6202C22.7186 11.1859 23.7471 11.6145 24.8271 11.8888C25.8643 12.1288 26.9186 12.2659 27.9814 12.3174V7.20022C26.85 7.21736 25.7357 6.94307 24.7414 6.42022H24.7586Z" fill="#AF905C"/>
</svg>
