<svg width="32" height="48" viewBox="0 0 32 48" fill="none" xmlns="http://www.w3.org/2000/svg">
<g filter="url(#filter0_d_289_1186)">
<path d="M2 4H22C24.2091 4 26 5.79086 26 8V40C26 42.2091 24.2091 44 22 44H2V4Z" fill="white"/>
<path d="M12.0914 23.505L15.9284 20.236C16.0229 20.1553 16.1386 20.1034 16.2616 20.0865C16.3847 20.0695 16.5101 20.0882 16.6229 20.1403C16.7357 20.1923 16.8312 20.2757 16.8981 20.3804C16.965 20.4851 17.0005 20.6068 17.0004 20.731V27.269C17.0005 27.3933 16.965 27.5149 16.8981 27.6196C16.8312 27.7243 16.7357 27.8077 16.6229 27.8597C16.5101 27.9118 16.3847 27.9305 16.2616 27.9135C16.1386 27.8966 16.0229 27.8447 15.9284 27.764L12.0914 24.494C12.0199 24.433 11.9625 24.3572 11.9231 24.2718C11.8837 24.1864 11.8633 24.0935 11.8633 23.9995C11.8633 23.9055 11.8837 23.8126 11.9231 23.7272C11.9625 23.6418 12.0199 23.566 12.0914 23.505Z" fill="#BFBFBF"/>
</g>
<defs>
<filter id="filter0_d_289_1186" x="0" y="0" width="32" height="48" filterUnits="userSpaceOnUse" color-interpolation-filters="sRGB">
<feFlood flood-opacity="0" result="BackgroundImageFix"/>
<feColorMatrix in="SourceAlpha" type="matrix" values="0 0 0 0 0 0 0 0 0 0 0 0 0 0 0 0 0 0 127 0" result="hardAlpha"/>
<feOffset dx="2"/>
<feGaussianBlur stdDeviation="2"/>
<feComposite in2="hardAlpha" operator="out"/>
<feColorMatrix type="matrix" values="0 0 0 0 0 0 0 0 0 0 0 0 0 0 0 0 0 0 0.2 0"/>
<feBlend mode="normal" in2="BackgroundImageFix" result="effect1_dropShadow_289_1186"/>
<feBlend mode="normal" in="SourceGraphic" in2="effect1_dropShadow_289_1186" result="shape"/>
</filter>
</defs>
</svg>
